<svg version="1.2" xmlns="http://www.w3.org/2000/svg" viewBox="0 0 876 836" width="876" height="836">
	<title>izmirincisi-ai</title>
	<style>
		.s0 { fill: #050505 } 
		.s1 { fill: #b79d60 } 
		.s2 { fill: #fefefe } 
	</style>
	<g id="Layer 1">
		<g id="&lt;Group&gt;">
			<path id="&lt;Path&gt;" class="s0" d="m742.6 408c0 169.3-137.3 306.6-306.6 306.6-169.4 0-306.6-137.3-306.6-306.6 0-169.4 137.2-306.6 306.6-306.6 169.3 0 306.6 137.2 306.6 306.6z"/>
			<path id="&lt;Compound Path&gt;" fill-rule="evenodd" class="s1" d="m702.9 448.5c-2.3 14.4 1.4 30-3 43.5-4.5 13.7-16.6 24.2-23.1 36.9-6.6 12.9-8 28.9-16.4 40.4-8.4 11.6-23.2 17.9-33.4 28-10.1 10.1-16.4 24.9-28 33.4-11.5 8.4-27.5 9.8-40.3 16.4-12.7 6.4-23.2 18.6-37 23-13.5 4.4-29.1 0.8-43.4 3-14 2.2-27.7 10.5-42.3 10.5-14.6 0-28.4-8.3-42.3-10.5-14.3-2.2-30 1.4-43.5-3-13.7-4.4-24.2-16.6-36.9-23-12.8-6.6-28.8-8-40.4-16.4-11.6-8.5-17.9-23.3-28-33.4-10.1-10.1-24.9-16.4-33.4-28-8.4-11.5-9.8-27.5-16.3-40.4-6.5-12.7-18.7-23.2-23.1-36.9-4.4-13.5-0.8-29.1-3-43.5-2.2-13.9-10.5-27.7-10.5-42.2 0-14.6 8.3-28.4 10.5-42.3 2.2-14.4-1.4-30 3-43.5 4.4-13.7 16.6-24.3 23.1-36.9 6.5-12.9 7.9-28.9 16.3-40.4 8.5-11.6 23.3-17.9 33.4-28 10.1-10.1 16.4-24.9 28-33.4 11.6-8.4 27.6-9.8 40.4-16.4 12.7-6.4 23.2-18.6 36.9-23.1 13.5-4.3 29.2-0.7 43.5-3 13.9-2.2 27.7-10.5 42.3-10.5 14.6 0 28.3 8.3 42.3 10.5 14.3 2.3 29.9-1.3 43.4 3 13.8 4.5 24.3 16.7 37 23.1 12.8 6.6 28.8 8 40.3 16.4 11.6 8.5 17.9 23.3 28 33.4 10.2 10.1 25 16.4 33.4 28 8.4 11.5 9.8 27.5 16.4 40.4 6.5 12.7 18.6 23.2 23.1 36.9 4.4 13.5 0.7 29.1 3 43.5 2.2 13.9 10.5 27.7 10.5 42.3 0 14.5-8.3 28.3-10.5 42.2zm-13-42.2c0-140.3-113.7-253.9-253.9-253.9-140.3 0-253.9 113.6-253.9 253.9 0 140.2 113.6 253.8 253.9 253.8 140.2 0 253.9-113.6 253.9-253.8z"/>
			<path id="&lt;Compound Path&gt;" fill-rule="evenodd" class="s1" d="m436 167.2c131.8 0 239.1 107.2 239.1 239.1 0 131.8-107.3 239-239.1 239-131.9 0-239.1-107.2-239.1-239 0-131.9 107.2-239.1 239.1-239.1zm0 474.5c129.8 0 235.5-105.6 235.5-235.4 0-129.9-105.7-235.6-235.5-235.6-129.9 0-235.5 105.7-235.5 235.6 0 129.8 105.6 235.4 235.5 235.4z"/>
		</g>
		<g id="&lt;Group&gt;">
			<path id="&lt;Path&gt;" class="s1" d="m476.6 244.3c2.4-2.3 4.8-4.6 4.8-7.7 0-3-2.4-5.4-4.8-7.6-1.6-1.5-3.2-3-3.6-4.4-0.5-1.5-0.1-3.7 0.3-5.9 0.6-3.1 1.2-6.4-0.6-8.8-1.7-2.4-5-2.8-8.2-3.2-2.2-0.3-4.4-0.6-5.7-1.5-1.2-0.9-2.1-2.9-3.1-4.9-1.4-2.9-2.8-6-5.7-6.9-2.7-0.9-5.6 0.7-8.4 2.2-2 1-4 2.1-5.6 2.1-1.7 0-3.7-1.1-5.7-2.1-2.7-1.5-5.6-3.1-8.4-2.2-2.8 0.9-4.3 4-5.7 6.9-0.9 2-1.9 4-3.1 4.9-1.2 0.9-3.5 1.2-5.6 1.5-3.2 0.4-6.5 0.8-8.3 3.2-1.7 2.4-1.1 5.7-0.5 8.8 0.3 2.2 0.8 4.4 0.3 5.9-0.5 1.4-2.1 2.9-3.6 4.4-2.4 2.2-4.9 4.6-4.9 7.6 0 3.1 2.5 5.4 4.9 7.7 1.1 1.1 2.3 2.2 3 3.3h3.3c-0.8-2-2.6-3.7-4.4-5.4-1.9-1.8-3.9-3.7-3.9-5.6 0-1.8 2-3.7 3.9-5.5 1.9-1.7 3.7-3.5 4.4-5.6 0.7-2.2 0.3-4.8-0.2-7.3-0.5-2.6-1-5.2 0-6.6 1.1-1.4 3.7-1.7 6.3-2.1 2.6-0.3 5.2-0.7 7-2 1.8-1.3 3-3.7 4-6 1.2-2.3 2.3-4.8 4-5.3 1.6-0.6 3.9 0.7 6.2 1.9 2.3 1.3 4.6 2.5 7 2.5 2.3 0 4.7-1.2 7-2.5 2.2-1.2 4.6-2.5 6.1-1.9 1.7 0.5 2.9 3 4 5.3 1.1 2.3 2.2 4.7 4 6 1.9 1.3 4.5 1.7 7 2 2.6 0.4 5.3 0.7 6.3 2.1 1 1.4 0.5 4 0.1 6.6-0.5 2.5-1 5.1-0.3 7.3 0.7 2.1 2.6 3.9 4.4 5.6 1.9 1.8 3.9 3.7 3.9 5.5 0 1.9-2 3.8-3.9 5.6-1.8 1.7-3.6 3.4-4.3 5.4h3.2c0.7-1.1 1.9-2.2 3.1-3.3z"/>
			<path id="&lt;Path&gt;" class="s1" d="m436 232c-4.2 0-8.1 1.6-11.1 4.6-2.9 2.9-4.5 6.8-4.6 11h2.9c0.1-7 5.8-12.7 12.8-12.7 7 0 12.7 5.7 12.7 12.7h2.9c0-8.6-7-15.6-15.6-15.6z"/>
			<path id="&lt;Compound Path&gt;" fill-rule="evenodd" class="s1" d="m476.2 247.6c1.1 0 1.9 0.8 1.9 1.9 0 4.8-4.5 9.2-12.8 12.3-7.9 3-18.3 4.7-29.3 4.7-11.1 0-21.5-1.7-29.3-4.7-8.3-3.1-12.9-7.5-12.9-12.3 0-1.1 0.9-1.9 1.9-1.9zm-79.4 2.9c0.7 3.1 4.6 6.2 10.9 8.6 7.5 2.9 17.6 4.5 28.3 4.5 10.7 0 20.7-1.6 28.3-4.5 6.3-2.4 10.2-5.5 10.9-8.6z"/>
		</g>
		<g id="&lt;Group&gt;">
			<g id="&lt;Group&gt;">
				<path id="&lt;Compound Path&gt;" class="s2" d="m295.6 348.5h20.1v85.8h-20.1z"/>
				<path id="&lt;Compound Path&gt;" class="s2" d="m393.2 348.8l-35.1 65.6h31.2v19.9h-64.5l35.2-65.6h-30.1v-19.9z"/>
				<path id="&lt;Compound Path&gt;" class="s2" d="m474.8 348.5l0.1 85.7h-20.2v-29.1l-15.3 29.2-16.6-30.7v30.6h-20.1v-85.7h16.4l19.9 42.3 19.3-42.3z"/>
				<path id="&lt;Compound Path&gt;" class="s2" d="m487.5 348.5h20.1v85.8h-20.1z"/>
				<path id="&lt;Compound Path&gt;" fill-rule="evenodd" class="s2" d="m572.3 381.3c0 9.8-4.3 18.8-11.4 25l16.4 28h-23.3l-11.8-20-1.1 0.1v19.9h-20.1v-85.8h17.4c9.3 0 17.9 3.5 24 9.5 6.2 6 9.9 14.2 9.9 23.3zm-31.2 12.9c6.5-1.1 11-6.4 11-12.9 0-6.4-4.3-11.4-11-12.4z"/>
				<path id="&lt;Path&gt;" class="s2" d="m312 338.2c0 3.3-2.7 6-5.9 6-3.3 0-6-2.7-6-6 0-3.2 2.7-5.9 6-5.9 3.2 0 5.9 2.7 5.9 5.9z"/>
				<path id="&lt;Path&gt;" class="s2" d="m493.7 341.7c-1.9-2.7-1.2-6.4 1.4-8.3 2.7-1.9 6.4-1.2 8.3 1.4 1.9 2.7 1.2 6.4-1.4 8.3-2.7 1.9-6.4 1.2-8.3-1.4z"/>
			</g>
			<g id="&lt;Group&gt;">
				<path id="&lt;Compound Path&gt;" class="s2" d="m294.6 468.5h20.2v85.8h-20.2z"/>
				<path id="&lt;Compound Path&gt;" class="s2" d="m386.9 468.5v85.8h-15.8l-3-5-20.4-34.3v39.2h-20.1l-0.1-85.7h15.9l2.9 5 20.5 34.2v-39.2z"/>
				<path id="&lt;Compound Path&gt;" class="s2" d="m442.6 554.4c-12.1 0-23.2-4.5-31.1-12.5-8.1-7.8-12.7-18.7-12.7-30.6 0-11.7 4.6-22.7 12.9-30.6 3.9-4.1 8.6-7.1 13.8-9.4 5.5-2.2 11.1-3.4 17.1-3.4 2.9 0 5.9 0.3 8.7 0.9l-3.9 19.2q-2.4-0.5-4.8-0.5c-13.6 0-24.2 10.4-24.2 23.8 0 13.2 10.6 23.6 24.2 23.6 1.7 0 3.3-0.2 4.9-0.5l4 19.1c-2.9 0.6-5.9 0.9-8.9 0.9z"/>
				<path id="&lt;Compound Path&gt;" class="s2" d="m462.5 468.5h20.1v85.8h-20.1z"/>
				<path id="&lt;Compound Path&gt;" class="s2" d="m514.8 535.2h-0.1c2.7 0.3 5.7-0.5 7.6-2 2.7-2.1 3-6.7 0.4-9.3-1.4-1.4-4.4-3.2-9-5.9l-1.1-0.6c-0.3-0.1-0.9-0.4-1.6-0.7l-0.5-0.3-0.6-0.3c-0.4-0.3-0.8-0.5-1.2-0.7l-2.9-1.7c-2.3-1.5-4.4-3.1-6.2-4.9-9.5-9.6-9.1-25.4 1.1-34.5 5.5-4.8 12.9-7.1 20.6-6.4 7.4 0.7 14.4 4.6 18.7 10l-15.7 11.9c-0.9-0.9-3-2-4.9-2.2q-3.5-0.3-5.6 1.6c-1.5 1.2-1.8 4.1 0.4 6 1 1 3 2.4 6 3.9q1.3 0.7 2 1l2.8 1.5q0.9 0.7 1.7 1.1c1.4 0.8 2.6 1.6 3.7 2.3 2.9 1.8 5.2 3.8 7.2 5.9 5 5.3 7.2 11.9 6.6 19.4-1.3 15.1-13.8 24.7-28.3 24.7-1.2 0-2.3 0-3.4-0.2-0.3 0-0.8-0.1-1.2-0.1-0.6-0.1-1.3-0.3-1.9-0.4-1.8-0.5-3.6-1.1-5.3-1.9-5-2.2-9.1-5.6-12.2-10.1l16.4-11.2c0.9 1.3 2.1 2.4 3.7 3.2q0.8 0.3 1.7 0.6l0.5 0.1 0.2 0.1h0.2z"/>
				<path id="&lt;Compound Path&gt;" class="s2" d="m553.6 468.5h20.2v85.8h-20.2z"/>
				<path id="&lt;Path&gt;" class="s2" d="m300.3 459.6c-1.9-2.7-1.3-6.4 1.4-8.2 2.7-1.9 6.4-1.3 8.2 1.4 1.9 2.6 1.3 6.3-1.4 8.2-2.6 1.9-6.3 1.3-8.2-1.4z"/>
				<path id="&lt;Path&gt;" class="s2" d="m467.8 459.6c-1.9-2.7-1.2-6.4 1.4-8.2 2.7-1.9 6.4-1.3 8.3 1.4 1.9 2.6 1.2 6.3-1.4 8.2-2.7 1.9-6.4 1.3-8.3-1.4z"/>
				<path id="&lt;Path&gt;" class="s2" d="m559.3 459.6c-1.9-2.7-1.2-6.4 1.4-8.2 2.7-1.9 6.4-1.3 8.3 1.4 1.9 2.6 1.2 6.3-1.4 8.2-2.7 1.9-6.4 1.3-8.3-1.4z"/>
			</g>
		</g>
		<g id="&lt;Group&gt;">
			<g id="&lt;Group&gt;">
				<path id="&lt;Compound Path&gt;" class="s1" d="m367.2 304.1v6.7q0 0.5 0.2 0.8 0.3 0.3 0.9 0.5v0.5h-7v-0.5q0.6-0.1 0.8-0.5 0.3-0.3 0.3-0.8v-16.3q0-0.6-0.2-0.9-0.3-0.3-0.9-0.5v-0.4h17.9q0.5 0 0.8-0.3 0.3-0.2 0.5-0.9h0.5v5.9h-0.5q-0.2-0.6-0.5-0.9-0.3-0.2-0.8-0.2h-12v4.4h7.5q0.6 0 0.9-0.3 0.2-0.2 0.4-0.9h0.5v5.8h-0.5q-0.1-0.7-0.4-0.9-0.3-0.3-0.9-0.3z"/>
				<path id="&lt;Compound Path&gt;" class="s1" d="m404.3 294.5v16.3q0 0.5 0.3 0.8 0.2 0.3 0.9 0.5v0.5h-7.1v-0.5q0.7-0.1 0.9-0.5 0.3-0.3 0.3-0.8v-16.3q0-0.6-0.3-0.9-0.2-0.3-0.9-0.5v-0.4h7.1v0.4q-0.7 0.2-0.9 0.5-0.3 0.3-0.3 0.9z"/>
				<path id="&lt;Compound Path&gt;" fill-rule="evenodd" class="s1" d="m429.8 304.4v6.4q0 0.5 0.3 0.8 0.2 0.3 0.9 0.5v0.5h-7.1v-0.5q0.6-0.1 0.9-0.5 0.3-0.3 0.3-0.8v-16.3q0-0.6-0.3-0.9-0.2-0.3-0.9-0.5v-0.4h13.1q2.6 0 3.9 0.2 1.3 0.3 2.4 0.9 2.1 1.5 2.1 4.6 0 2.5-1.3 3.8-1.3 1.4-4.3 2l3.8 5.3q1 1.4 1.6 1.9 0.7 0.6 1.4 0.7v0.5h-8.4v-0.5q1-0.2 1-0.8 0-0.4-0.6-1.2l-4-5.7zm0-3.6h7.2q1.7 0 2.4-0.4 1.1-0.4 1.1-1.9 0-1.2-0.7-1.7-0.8-0.5-2.8-0.5h-7.2z"/>
				<path id="&lt;Compound Path&gt;" class="s1" d="m469.8 294.5v16.3q0 0.5 0.3 0.8 0.2 0.3 0.9 0.5v0.5h-7.1v-0.5q0.6-0.1 0.9-0.5 0.2-0.3 0.2-0.8v-16.3q0-0.6-0.2-0.9-0.3-0.3-0.9-0.5v-0.4h7.1v0.4q-0.7 0.2-0.9 0.5-0.3 0.3-0.3 0.9z"/>
				<path id="&lt;Compound Path&gt;" class="s1" d="m494.9 299.5v11.3q0 0.5 0.2 0.8 0.3 0.3 0.9 0.5v0.5h-6.6v-0.5q0.6-0.1 0.9-0.5 0.2-0.3 0.2-0.8v-16.3q0-0.6-0.2-0.9-0.3-0.3-0.9-0.5v-0.4h7.7v0.4q-0.8 0.2-0.8 0.7 0 0.5 0.6 1l10.7 10.7v-11q0-0.6-0.3-0.9-0.2-0.3-0.9-0.5v-0.4h6.6v0.4q-0.6 0.2-0.8 0.5-0.3 0.3-0.3 0.9v16.3q0 0.5 0.3 0.8 0.2 0.3 0.8 0.5v0.5h-7.1v-0.5q0.8-0.1 0.8-0.6 0-0.3-0.2-0.6-0.2-0.2-1-1z"/>
			</g>
			<path id="&lt;Path&gt;" class="s1" d="m558.9 302.1h-37.7v-2.3h37.7z"/>
			<path id="&lt;Path&gt;" class="s1" d="m350.8 302.1h-37.8v-2.3h37.8z"/>
		</g>
	</g>
</svg>